Coordinates
version=1
nRows=38
nColumns=12
inDegrees=yes

Units are S.I. units (second, meters, Newtons, ...)
Angles are in degrees

endheader
time	SC_y	SC_z	SC_x	AC_y	AC_z	AC_x	GH_y	GH_z	GH_yy	EL_x	PS_y
       0.0              -11.99          14.64          59.92          38.26         -18.08          18.77          9.768          79.44         -120.5          80.69          113.7
   0.04095              -11.99          14.65          59.92          38.26         -18.07          18.77          9.766          79.43         -120.5           80.7          113.7
   0.08191              -11.99          14.65          59.93          38.26         -18.07          18.76          9.764          79.42         -120.4           80.7          113.7
    0.1229              -11.99          14.65          59.93          38.27         -18.07          18.76          9.762          79.41         -120.4          80.71          113.7
    0.1638              -11.99          14.66          59.93          38.27         -18.07          18.75           9.76          79.39         -120.4          80.71          113.7
    0.2048               -12.0          14.66          59.93          38.27         -18.07          18.75          9.758          79.38         -120.3          80.72          113.7
    0.2457               -12.0          14.66          59.94          38.28         -18.06          18.74          9.755          79.37         -120.3          80.72          113.7
    0.2867               -12.0          14.67          59.94          38.28         -18.06          18.73          9.752          79.35         -120.2          80.73          113.7
    0.3276               -12.0          14.67          59.94          38.29         -18.06          18.73           9.75          79.33         -120.2          80.73          113.8
    0.3686              -12.01          14.68          59.95          38.29         -18.06          18.72          9.746          79.32         -120.1          80.74          113.8
    0.4095              -12.01          14.68          59.95           38.3         -18.05          18.71          9.743           79.3         -120.0          80.75          113.8
    0.4505              -12.01          14.69          59.95           38.3         -18.05           18.7           9.74          79.28         -120.0          80.76          113.8
    0.4914              -12.02           14.7          59.96          38.31         -18.05          18.69          9.736          79.26         -119.9          80.77          113.8
    0.5324              -12.02           14.7          59.96          38.32         -18.04          18.68          9.731          79.23         -119.8          80.78          113.8
    0.5733              -12.02          14.71          59.97          38.33         -18.04          18.67          9.727          79.21         -119.7          80.79          113.8
    0.6143              -12.03          14.72          59.97          38.33         -18.04          18.65          9.722          79.18         -119.7           80.8          113.8
    0.6553              -12.03          14.73          59.98          38.34         -18.03          18.64          9.717          79.15         -119.6          80.81          113.8
    0.6962              -12.04          14.74          59.99          38.35         -18.03          18.62          9.711          79.11         -119.4          80.83          113.8
    0.7372              -12.04          14.75          59.99          38.36         -18.02          18.61          9.705          79.08         -119.3          80.84          113.8
    0.7781              -12.05          14.76           60.0          38.37         -18.01          18.59          9.698          79.04         -119.2          80.86          113.8
    0.8191              -12.06          14.77          60.01          38.39         -18.01          18.57           9.69           79.0         -119.1          80.88          113.8
      0.86              -12.06          14.78          60.02           38.4          -18.0          18.55          9.682          78.95         -118.9          80.89          113.8
     0.901              -12.07           14.8          60.03          38.42         -17.99          18.52          9.672           78.9         -118.7          80.92          113.8
    0.9419              -12.08          14.82          60.04          38.43         -17.98          18.49          9.662          78.84         -118.5          80.94          113.8
    0.9829              -12.09          14.83          60.06          38.45         -17.97          18.46          9.651          78.77         -118.3          80.97          113.9
     1.024               -12.1          14.85          60.07          38.48         -17.96          18.43          9.638           78.7         -118.1           81.0          113.9
     1.065              -12.12          14.88          60.09           38.5         -17.95          18.39          9.624          78.62         -117.8          81.03          113.9
     1.106              -12.13           14.9          60.11          38.53         -17.94          18.35          9.608          78.53         -117.5          81.07          113.9
     1.147              -12.15          14.93          60.13          38.56         -17.92           18.3          9.589          78.43         -117.2          81.11          113.9
     1.188              -12.17          14.97          60.15          38.59          -17.9          18.25          9.569          78.31         -116.8          81.16          113.9
     1.229              -12.19           15.0          60.18          38.63         -17.88          18.19          9.545          78.18         -116.4          81.22          114.0
      1.27              -12.21          15.05          60.21          38.68         -17.86          18.11          9.518          78.02         -115.9          81.28          114.0
     1.311              -12.24           15.1          60.24          38.73         -17.83          18.03          9.487          77.85         -115.3          81.35          114.0
     1.351              -12.27          15.16          60.29          38.79          -17.8          17.94          9.451          77.64         -114.6          81.44          114.1
     1.392              -12.31          15.23          60.33          38.86         -17.76          17.82          9.409           77.4         -113.9          81.54          114.1
     1.433              -12.36          15.31          60.39          38.94         -17.72          17.69          9.359          77.12         -112.9          81.65          114.2
     1.474              -12.41           15.4          60.46          39.04         -17.67          17.54          9.299          76.79         -111.8          81.79          114.2
     1.515              -12.48          15.52          60.54          39.16         -17.61          17.35          9.228          76.38         -110.5          81.96          114.3
